<svg width="500" height="829" viewBox="0 0 500 829" fill="none" xmlns="http://www.w3.org/2000/svg">
<path d="M319.149 153.618C277.872 154.256 227.234 150.426 205.106 138.511C186.383 128.511 204.255 121.703 215.745 134.894C227.234 148.086 218.511 155.745 202.553 155.958C182.979 156.171 185.745 137.66 204.681 147.447C230.638 160.852 211.489 171.277 200.213 173.192C188.936 175.32 184.894 172.128 184.894 168.724C184.894 165.32 188.936 162.341 200.213 164.256C211.489 166.384 230.638 176.596 204.681 190.001C185.745 199.788 182.979 181.49 202.553 181.49C218.511 181.703 227.234 189.575 215.745 202.554C204.255 215.745 186.383 208.937 205.106 198.937C227.234 187.022 277.872 183.192 319.149 183.83" stroke="#191743" stroke-width="2" stroke-miterlimit="10"/>
<path opacity="0.1" d="M286.383 168.937C286.383 161.277 286.383 138.724 286.383 134.043C286.383 129.362 286.17 125.32 276.17 123.192C266.17 121.064 245.532 118.724 233.191 109.362C215.532 96.1707 191.702 77.8728 152.979 84.4686C114.894 90.8515 83.4043 121.703 83.4043 168.724C83.4043 215.745 114.894 246.809 152.979 253.192C191.489 259.788 215.532 241.49 233.191 228.298C245.532 218.937 266.17 216.596 276.17 214.469C286.17 212.554 286.383 208.298 286.383 203.617C286.383 199.149 286.383 176.596 286.383 168.937Z" fill="url(#paint0_radial)"/>
<path opacity="0.1" d="M286.383 168.937C286.383 161.277 286.383 138.724 286.383 134.043C286.383 129.362 286.17 125.32 276.17 123.192C266.17 121.064 245.532 118.724 233.192 109.362C215.532 96.1707 191.702 77.8728 152.979 84.4686C114.894 90.8515 83.4043 121.703 83.4043 168.724C83.4043 215.745 114.894 246.809 152.979 253.192C191.489 259.788 215.532 241.49 233.192 228.298C245.532 218.937 266.17 216.596 276.17 214.469C286.17 212.554 286.383 208.298 286.383 203.617C286.383 199.149 286.383 176.596 286.383 168.937Z" stroke="#191743" stroke-miterlimit="10"/>
<path opacity="0.2" d="M366 232L366 866" stroke="#C6C6C6" stroke-width="5" stroke-miterlimit="10"/>
<path d="M457.66 192.552H465.745C471.702 192.552 476.383 187.872 476.383 181.914V155.957C476.383 149.999 471.702 145.318 465.745 145.318H457.66C461.277 152.34 463.404 160.425 463.404 168.935C463.404 177.446 461.277 185.531 457.66 192.552Z" fill="#191743"/>
<path d="M459.787 192.553C463.404 185.531 465.532 177.446 465.532 168.936C465.532 160.425 463.404 152.34 459.787 145.319C451.277 128.723 433.83 117.233 413.83 117.233H393.617V148.084V189.787V220.638H413.83C433.83 220.638 451.277 209.148 459.787 192.553Z" fill="#191743"/>
<path d="M393.617 221.489V220.638V189.787V148.085V117.233V116.382C393.617 110.425 388.936 105.744 382.979 105.744H348.511C342.553 105.744 337.872 110.425 337.872 116.382V117.233V220.425V221.276C337.872 227.234 342.553 231.914 348.511 231.914H382.979C388.723 232.127 393.617 227.446 393.617 221.489Z" fill="#191743"/>
<path d="M500 289.787V288.936V258.085V79.7867V48.9356V48.0846C500 42.1271 495.319 37.4463 489.362 37.4463H477.447C471.489 37.4463 466.809 42.1271 466.809 48.0846V48.9356V288.936V289.787C466.809 295.744 471.489 300.425 477.447 300.425H489.362C495.319 300.425 500 295.744 500 289.787Z" fill="#191743"/>
<path d="M365.745 263.341C374.675 263.341 381.915 256.101 381.915 247.17C381.915 238.24 374.675 231 365.745 231C356.814 231 349.575 238.24 349.575 247.17C349.575 256.101 356.814 263.341 365.745 263.341Z" fill="#191743"/>
<path d="M328.298 117.233H293.404C287.447 117.233 282.766 121.914 282.766 127.872V209.787C282.766 215.744 287.447 220.425 293.404 220.425H328.298C330.851 220.425 334.255 220.425 337.872 220.425V117.233C334.468 117.233 331.064 117.233 328.298 117.233Z" fill="#191743"/>
<defs>
<radialGradient id="paint0_radial" cx="0" cy="0" r="1" gradientUnits="userSpaceOnUse" gradientTransform="translate(184.815 168.936) scale(93.9302)">
<stop stop-color="#282828" stop-opacity="0"/>
<stop offset="0.9722" stop-color="#282828" stop-opacity="0.9728"/>
<stop offset="0.9994" stop-color="#282828"/>
</radialGradient>
</defs>
</svg>
