<svg width="500" height="756" viewBox="0 0 500 756" fill="none" xmlns="http://www.w3.org/2000/svg">
<path d="M168.936 337.872C262.237 337.872 337.872 262.237 337.872 168.936C337.872 75.6353 262.237 0 168.936 0C75.6353 0 0 75.6353 0 168.936C0 262.237 75.6353 337.872 168.936 337.872Z" fill="url(#paint0_radial)"/>
<path d="M286.383 168.937C286.383 161.277 286.383 138.724 286.383 134.043C286.383 129.362 286.17 125.32 276.17 123.192C266.17 121.064 245.532 118.724 233.191 109.362C215.532 96.1707 191.702 77.8728 152.979 84.4686C114.894 90.8515 83.4043 121.703 83.4043 168.724C83.4043 215.745 114.894 246.809 152.979 253.192C191.489 259.788 215.532 241.49 233.191 228.298C245.532 218.937 266.17 216.596 276.17 214.469C286.17 212.554 286.383 208.298 286.383 203.617C286.383 199.149 286.383 176.596 286.383 168.937Z" fill="url(#paint1_radial)"/>
<path d="M319.149 153.618C277.872 154.256 227.234 150.426 205.106 138.511C186.383 128.511 204.255 121.703 215.745 134.894C227.234 148.086 218.511 155.745 202.553 155.958C182.979 156.171 185.745 137.66 204.681 147.447C230.638 160.852 211.489 171.277 200.213 173.192C188.936 175.32 184.894 172.128 184.894 168.724C184.894 165.32 188.936 162.341 200.213 164.256C211.489 166.384 230.638 176.596 204.681 190.001C185.745 199.788 182.979 181.49 202.553 181.49C218.511 181.703 227.234 189.575 215.745 202.554C204.255 215.745 186.383 208.937 205.106 198.937C227.234 187.022 277.872 183.192 319.149 183.83" stroke="#FFF18E" stroke-width="0.5" stroke-miterlimit="10"/>
<path d="M286.383 168.937C286.383 161.277 286.383 138.724 286.383 134.043C286.383 129.362 286.17 125.32 276.17 123.192C266.17 121.064 245.532 118.724 233.191 109.362C215.532 96.1707 191.702 77.8728 152.979 84.4686C114.894 90.8515 83.4043 121.703 83.4043 168.724C83.4043 215.745 114.894 246.809 152.979 253.192C191.489 259.788 215.532 241.49 233.191 228.298C245.532 218.937 266.17 216.596 276.17 214.469C286.17 212.554 286.383 208.298 286.383 203.617C286.383 199.149 286.383 176.596 286.383 168.937Z" stroke="#FEF7B8" stroke-miterlimit="10"/>
<path d="M365.745 237.446C364.255 237.446 362.979 236.808 361.915 235.957C361.702 235.744 361.489 235.532 361.277 235.106C361.064 234.893 360.851 234.468 360.851 234.255C360.638 234.042 360.638 233.617 360.638 233.191C360.638 232.766 360.638 232.553 360.638 232.127C360.638 231.702 360.638 231.489 360.638 231.063C360.638 230.638 360.851 230.425 360.851 230C361.064 229.574 361.064 229.361 361.277 229.149C361.489 228.936 361.702 228.51 361.915 228.297C363.83 226.383 367.447 226.383 369.362 228.297C370.426 229.361 370.851 230.638 370.851 232.127C370.851 233.617 370.213 234.893 369.362 235.957C368.511 236.808 367.021 237.446 365.745 237.446Z" fill="#0D0F2A"/>
<path d="M360.426 728.51C360.426 725.744 362.553 723.616 365.106 723.191C362.553 722.978 360.426 720.638 360.426 717.872C360.426 715.106 362.553 712.978 365.106 712.553C362.553 712.34 360.426 709.999 360.426 707.233C360.426 704.467 362.553 702.34 365.106 701.914C362.553 701.702 360.426 699.361 360.426 696.595C360.426 693.829 362.553 691.702 365.106 691.276C362.553 691.063 360.426 688.723 360.426 685.957C360.426 683.191 362.553 681.063 365.106 680.638C362.553 680.425 360.426 678.085 360.426 675.319C360.426 672.553 362.553 670.425 365.106 669.999C362.553 669.574 360.426 667.446 360.426 664.68C360.426 661.914 362.553 659.787 365.106 659.361C362.553 659.148 360.426 656.808 360.426 654.042C360.426 651.276 362.553 649.148 365.106 648.723C362.553 648.51 360.426 646.17 360.426 643.404C360.426 640.638 362.553 638.51 365.106 638.085C362.553 637.872 360.426 635.531 360.426 632.765C360.426 629.999 362.553 627.872 365.106 627.446C362.553 627.233 360.426 624.893 360.426 622.127C360.426 619.361 362.553 617.233 365.106 616.808C362.553 616.595 360.426 614.255 360.426 611.489C360.426 608.723 362.553 606.595 365.106 606.17C362.553 605.957 360.426 603.616 360.426 600.85C360.426 598.085 362.553 595.957 365.106 595.531C362.553 595.106 360.426 592.978 360.426 590.212C360.426 587.446 362.553 585.319 365.106 584.893C362.553 584.467 360.426 582.34 360.426 579.574C360.426 576.808 362.553 574.68 365.106 574.255C362.553 574.042 360.426 571.702 360.426 568.936C360.426 566.17 362.553 564.042 365.106 563.616C362.553 563.404 360.426 561.063 360.426 558.297C360.426 555.531 362.553 553.404 365.106 552.978C362.553 552.765 360.426 550.425 360.426 547.659C360.426 544.893 362.553 542.765 365.106 542.34C362.553 542.127 360.426 539.787 360.426 537.021C360.426 534.255 362.553 532.127 365.106 531.702C362.553 531.489 360.426 529.148 360.426 526.382C360.426 523.616 362.553 521.489 365.106 521.063C362.553 520.85 360.426 518.51 360.426 515.744C360.426 512.978 362.553 510.85 365.106 510.425C362.553 509.999 360.426 507.872 360.426 505.106C360.426 502.34 362.553 500.212 365.106 499.787C362.553 499.574 360.426 497.233 360.426 494.467C360.426 491.701 362.553 489.574 365.106 489.148C362.553 488.936 360.426 486.595 360.426 483.829C360.426 481.063 362.553 478.936 365.106 478.51C362.553 478.297 360.426 475.957 360.426 473.191C360.426 470.425 362.553 468.297 365.106 467.872C362.553 467.446 360.426 465.318 360.426 462.553C360.426 459.787 362.553 457.659 365.106 457.233C362.553 457.021 360.426 454.68 360.426 451.914C360.426 449.148 362.553 447.021 365.106 446.595C362.553 446.17 360.426 444.042 360.426 441.276C360.426 438.51 362.553 436.382 365.106 435.957C362.553 435.744 360.426 433.404 360.426 430.638C360.426 427.872 362.553 425.744 365.106 425.318C362.553 425.106 360.426 422.765 360.426 419.999C360.426 417.233 362.553 415.106 365.106 414.68C362.553 414.467 360.426 412.127 360.426 409.361C360.426 406.595 362.553 404.467 365.106 404.042C362.553 403.829 360.426 401.489 360.426 398.723C360.426 395.957 362.553 393.829 365.106 393.404C362.553 393.191 360.426 390.85 360.426 388.084C360.426 385.318 362.553 383.191 365.106 382.765C362.553 382.34 360.426 380.212 360.426 377.446C360.426 374.68 362.553 372.553 365.106 372.127C362.553 371.914 360.426 369.574 360.426 366.808C360.426 364.042 362.553 361.914 365.106 361.489C362.553 361.276 360.426 358.936 360.426 356.17C360.426 353.404 362.553 351.276 365.106 350.85C362.553 350.638 360.426 348.297 360.426 345.531C360.426 342.765 362.553 340.638 365.106 340.212C362.553 339.999 360.426 337.659 360.426 334.893C360.426 332.127 362.553 329.999 365.106 329.574C362.553 329.361 360.426 327.021 360.426 324.255C360.426 321.489 362.553 319.361 365.106 318.935C362.553 318.723 360.426 316.382 360.426 313.616C360.426 310.85 362.553 308.723 365.106 308.297C362.553 307.872 360.426 305.744 360.426 302.978C360.426 300.212 362.553 298.084 365.106 297.659C362.553 297.233 360.426 295.106 360.426 292.34C360.426 289.574 362.553 287.446 365.106 287.021C362.553 286.808 360.426 284.467 360.426 281.701C360.426 278.935 362.553 276.808 365.106 276.382C362.553 276.17 360.426 273.829 360.426 271.063C360.426 268.297 362.553 266.17 365.106 265.744C362.553 265.531 360.426 263.191 360.426 260.425C360.426 257.659 362.553 255.531 365.106 255.106C362.553 254.893 360.426 252.553 360.426 249.787C360.426 247.021 362.553 244.893 365.106 244.467C362.553 244.042 360.426 241.914 360.426 239.148C360.426 236.17 362.766 233.829 365.745 233.829C368.723 233.829 371.064 236.17 371.064 239.148C371.064 241.914 368.936 244.042 366.383 244.467C368.936 244.68 371.064 247.021 371.064 249.787C371.064 252.553 368.936 254.68 366.383 255.106C368.936 255.531 371.064 257.659 371.064 260.425C371.064 263.191 368.936 265.318 366.383 265.744C368.936 266.17 371.064 268.297 371.064 271.063C371.064 273.829 368.936 275.957 366.383 276.382C368.936 276.595 371.064 278.935 371.064 281.701C371.064 284.467 368.936 286.595 366.383 287.021C368.936 287.233 371.064 289.574 371.064 292.34C371.064 295.106 368.936 297.233 366.383 297.659C368.936 297.872 371.064 300.212 371.064 302.978C371.064 305.744 368.936 307.872 366.383 308.297C368.936 308.51 371.064 310.85 371.064 313.616C371.064 316.382 368.936 318.51 366.383 318.935C368.936 319.361 371.064 321.489 371.064 324.255C371.064 327.021 368.936 329.148 366.383 329.574C368.936 329.787 371.064 332.127 371.064 334.893C371.064 337.659 368.936 339.787 366.383 340.212C368.936 340.638 371.064 342.765 371.064 345.531C371.064 348.297 368.936 350.425 366.383 350.85C368.936 351.276 371.064 353.404 371.064 356.17C371.064 358.936 368.936 361.063 366.383 361.489C368.936 361.701 371.064 364.042 371.064 366.808C371.064 369.574 368.936 371.701 366.383 372.127C368.936 372.34 371.064 374.68 371.064 377.446C371.064 380.212 368.936 382.34 366.383 382.765C368.936 382.978 371.064 385.318 371.064 388.084C371.064 390.85 368.936 392.978 366.383 393.404C368.936 393.616 371.064 395.957 371.064 398.723C371.064 401.489 368.936 403.616 366.383 404.042C368.936 404.255 371.064 406.595 371.064 409.361C371.064 412.127 368.936 414.255 366.383 414.68C368.936 414.893 371.064 417.233 371.064 419.999C371.064 422.765 368.936 424.893 366.383 425.318C368.936 425.744 371.064 427.872 371.064 430.638C371.064 433.404 368.936 435.531 366.383 435.957C368.936 436.17 371.064 438.51 371.064 441.276C371.064 444.042 368.936 446.17 366.383 446.595C368.936 446.808 371.064 449.148 371.064 451.914C371.064 454.68 368.936 456.808 366.383 457.233C368.936 457.446 371.064 459.787 371.064 462.553C371.064 465.318 368.936 467.446 366.383 467.872C368.936 468.084 371.064 470.425 371.064 473.191C371.064 475.957 368.936 478.084 366.383 478.51C368.936 478.723 371.064 481.063 371.064 483.829C371.064 486.595 368.936 488.723 366.383 489.148C368.936 489.361 371.064 491.701 371.064 494.467C371.064 497.233 368.936 499.361 366.383 499.787C368.936 500.212 371.064 502.34 371.064 505.106C371.064 507.872 368.936 509.999 366.383 510.425C368.936 510.638 371.064 512.978 371.064 515.744C371.064 518.51 368.936 520.638 366.383 521.063C368.936 521.276 371.064 523.616 371.064 526.382C371.064 529.148 368.936 531.276 366.383 531.702C368.936 531.914 371.064 534.255 371.064 537.021C371.064 539.787 368.936 541.914 366.383 542.34C368.936 542.553 371.064 544.893 371.064 547.659C371.064 550.425 368.936 552.553 366.383 552.978C368.936 553.191 371.064 555.531 371.064 558.297C371.064 561.063 368.936 563.191 366.383 563.616C368.936 563.829 371.064 566.17 371.064 568.936C371.064 571.702 368.936 573.829 366.383 574.255C368.936 574.467 371.064 576.808 371.064 579.574C371.064 582.34 368.936 584.467 366.383 584.893C368.936 585.106 371.064 587.446 371.064 590.212C371.064 592.978 368.936 595.106 366.383 595.531C368.936 595.744 371.064 598.085 371.064 600.85C371.064 603.616 368.936 605.744 366.383 606.17C368.936 606.382 371.064 608.723 371.064 611.489C371.064 614.255 368.936 616.382 366.383 616.808C368.936 617.021 371.064 619.361 371.064 622.127C371.064 624.893 368.936 627.021 366.383 627.446C368.936 627.872 371.064 629.999 371.064 632.765C371.064 635.531 368.936 637.659 366.383 638.085C368.936 638.51 371.064 640.638 371.064 643.404C371.064 646.17 368.936 648.297 366.383 648.723C368.936 648.936 371.064 651.276 371.064 654.042C371.064 656.808 368.936 658.936 366.383 659.361C368.936 659.574 371.064 661.914 371.064 664.68C371.064 667.446 368.936 669.574 366.383 669.999C368.936 670.212 371.064 672.553 371.064 675.319C371.064 678.085 368.936 680.212 366.383 680.638C368.936 680.85 371.064 683.191 371.064 685.957C371.064 688.723 368.936 690.85 366.383 691.276C368.936 691.489 371.064 693.829 371.064 696.595C371.064 699.361 368.936 701.489 366.383 701.914C368.936 702.34 371.064 704.467 371.064 707.233C371.064 709.999 368.936 712.127 366.383 712.553C368.936 712.978 371.064 715.106 371.064 717.872C371.064 720.638 368.936 722.765 366.383 723.191C368.936 723.616 371.064 725.744 371.064 728.51C371.064 731.489 368.723 733.829 365.745 733.829C362.766 733.829 360.426 731.489 360.426 728.51Z" fill="#0D0F2A"/>
<path d="M365.745 744.468C365.319 744.468 365.106 744.468 364.681 744.468C364.255 744.468 364.043 744.255 363.617 744.255C363.404 744.042 362.979 744.043 362.766 743.83C362.553 743.617 362.128 743.404 361.915 743.191C360.851 742.128 360.426 740.851 360.426 739.362C360.426 737.872 361.064 736.596 361.915 735.532C362.128 735.319 362.341 735.106 362.766 734.894C362.979 734.681 363.404 734.468 363.617 734.468C364.043 734.255 364.255 734.255 364.681 734.255C365.319 734.043 366.17 734.043 366.809 734.255C367.234 734.255 367.447 734.468 367.872 734.468C368.298 734.681 368.511 734.681 368.724 734.894C368.936 735.106 369.362 735.319 369.575 735.532C370.638 736.596 371.064 737.872 371.064 739.362C371.064 740.851 370.426 742.128 369.575 743.191C369.362 743.404 369.149 743.617 368.724 743.83C368.511 744.043 368.085 744.255 367.872 744.255C367.447 744.468 367.234 744.468 366.809 744.468C366.383 744.468 366.17 744.468 365.745 744.468Z" fill="#0D0F2A"/>
<path d="M365.745 755.319C374.675 755.319 381.915 748.079 381.915 739.149C381.915 730.218 374.675 722.979 365.745 722.979C356.814 722.979 349.575 730.218 349.575 739.149C349.575 748.079 356.814 755.319 365.745 755.319Z" fill="#0D0F2A"/>
<path fill-rule="evenodd" clip-rule="evenodd" d="M500 289.787V288.936V258.085V79.7867V48.9356V48.0846C500 42.1271 495.319 37.4463 489.362 37.4463H477.447C471.489 37.4463 466.809 42.1271 466.809 48.0846V48.9356V145.369C466.459 145.335 466.104 145.318 465.745 145.318H459.787C451.277 128.723 433.83 117.233 413.83 117.233H393.617V148.084V189.787V220.638H413.83C433.83 220.638 451.277 209.148 459.787 192.553L459.787 192.552H465.745C466.104 192.552 466.459 192.535 466.809 192.502V288.936V289.787C466.809 295.744 471.489 300.425 477.447 300.425H489.362C495.319 300.425 500 295.744 500 289.787ZM393.617 220.638V221.489C393.617 227.446 388.723 232.127 382.979 231.914H348.511C342.553 231.914 337.872 227.234 337.872 221.276V220.425V117.233V116.382C337.872 110.425 342.553 105.744 348.511 105.744H382.979C388.936 105.744 393.617 110.425 393.617 116.382V117.233V148.085V189.787V220.638ZM293.404 117.233H328.298H337.872V220.425H328.298H293.404C287.447 220.425 282.766 215.744 282.766 209.787V127.872C282.766 121.914 287.447 117.233 293.404 117.233Z" fill="#0D0F2A"/>
<defs>
<radialGradient id="paint0_radial" cx="0" cy="0" r="1" gradientUnits="userSpaceOnUse" gradientTransform="translate(168.936 168.936) scale(168.936)">
<stop offset="0.000619938" stop-color="#FEF7B8"/>
<stop offset="1" stop-color="#FEF7B8" stop-opacity="0"/>
</radialGradient>
<radialGradient id="paint1_radial" cx="0" cy="0" r="1" gradientUnits="userSpaceOnUse" gradientTransform="translate(184.815 168.936) scale(93.9302)">
<stop stop-color="white"/>
<stop offset="0.4815" stop-color="#FFFFFD"/>
<stop offset="0.6549" stop-color="#FFFEF6"/>
<stop offset="0.7785" stop-color="#FFFDEB"/>
<stop offset="0.8785" stop-color="#FEFBDA"/>
<stop offset="0.9631" stop-color="#FEF8C4"/>
<stop offset="0.9994" stop-color="#FEF7B8"/>
</radialGradient>
</defs>
</svg>
