<svg width="500" height="756" viewBox="0 0 500 756" fill="none" xmlns="http://www.w3.org/2000/svg">
<path d="M319.149 153.618C277.872 154.256 227.234 150.426 205.106 138.511C186.383 128.511 204.255 121.703 215.745 134.894C227.234 148.086 218.511 155.745 202.553 155.958C182.979 156.171 185.745 137.66 204.681 147.447C230.638 160.852 211.489 171.277 200.213 173.192C188.936 175.32 184.894 172.128 184.894 168.724C184.894 165.32 188.936 162.341 200.213 164.256C211.489 166.384 230.638 176.596 204.681 190.001C185.745 199.788 182.979 181.49 202.553 181.49C218.511 181.703 227.234 189.575 215.745 202.554C204.255 215.745 186.383 208.937 205.106 198.937C227.234 187.022 277.872 183.192 319.149 183.83" stroke="#191743" stroke-width="2" stroke-miterlimit="10"/>
<path opacity="0.1" d="M286.383 168.937C286.383 161.277 286.383 138.724 286.383 134.043C286.383 129.362 286.17 125.32 276.17 123.192C266.17 121.064 245.532 118.724 233.191 109.362C215.532 96.1707 191.702 77.8728 152.979 84.4686C114.894 90.8515 83.4043 121.703 83.4043 168.724C83.4043 215.745 114.894 246.809 152.979 253.192C191.489 259.788 215.532 241.49 233.191 228.298C245.532 218.937 266.17 216.596 276.17 214.469C286.17 212.554 286.383 208.298 286.383 203.617C286.383 199.149 286.383 176.596 286.383 168.937Z" fill="url(#paint0_radial)"/>
<path opacity="0.1" d="M286.383 168.937C286.383 161.277 286.383 138.724 286.383 134.043C286.383 129.362 286.17 125.32 276.17 123.192C266.17 121.064 245.532 118.724 233.192 109.362C215.532 96.1707 191.702 77.8728 152.979 84.4686C114.894 90.8515 83.4043 121.703 83.4043 168.724C83.4043 215.745 114.894 246.809 152.979 253.192C191.489 259.788 215.532 241.49 233.192 228.298C245.532 218.937 266.17 216.596 276.17 214.469C286.17 212.554 286.383 208.298 286.383 203.617C286.383 199.149 286.383 176.596 286.383 168.937Z" stroke="#191743" stroke-miterlimit="10"/>
<path fill-rule="evenodd" clip-rule="evenodd" d="M500 289.787V288.936V258.085V79.7867V48.9356V48.0846C500 42.1271 495.319 37.4463 489.362 37.4463H477.447C471.489 37.4463 466.809 42.1271 466.809 48.0846V48.9356V145.369C466.459 145.335 466.104 145.318 465.745 145.318H459.787C451.277 128.723 433.83 117.233 413.83 117.233H393.617V148.084V189.787V220.638H413.83C433.83 220.638 451.277 209.148 459.787 192.553L459.787 192.552H465.745C466.104 192.552 466.459 192.535 466.809 192.502V288.936V289.787C466.809 295.744 471.489 300.425 477.447 300.425H489.362C495.319 300.425 500 295.744 500 289.787ZM393.617 220.638V221.489C393.617 227.446 388.723 232.127 382.979 231.914H348.511C342.553 231.914 337.872 227.234 337.872 221.276V220.425V117.233V116.382C337.872 110.425 342.553 105.744 348.511 105.744H382.979C388.936 105.744 393.617 110.425 393.617 116.382V117.233V148.085V189.787V220.638ZM293.404 117.233H328.298H337.872V220.425H328.298H293.404C287.447 220.425 282.766 215.744 282.766 209.787V127.872C282.766 121.914 287.447 117.233 293.404 117.233Z" fill="#191743"/>
<path d="M366.17 237.585C364.681 237.585 363.404 236.947 362.34 236.096C362.128 235.883 361.915 235.67 361.702 235.245C361.489 235.032 361.277 234.606 361.277 234.394C361.064 234.181 361.064 233.755 361.064 233.33C361.064 232.904 361.064 232.691 361.064 232.266C361.064 231.84 361.064 231.628 361.064 231.202C361.064 230.777 361.277 230.564 361.277 230.138C361.489 229.713 361.489 229.5 361.702 229.287C361.915 229.074 362.128 228.649 362.34 228.436C364.255 226.521 367.872 226.521 369.787 228.436C370.851 229.5 371.277 230.777 371.277 232.266C371.277 233.755 370.638 235.032 369.787 236.096C368.936 236.947 367.447 237.585 366.17 237.585Z" fill="#191743"/>
<path d="M360.851 728.649C360.851 725.883 362.979 723.755 365.532 723.33C362.979 723.117 360.851 720.776 360.851 718.01C360.851 715.244 362.979 713.117 365.532 712.691C362.979 712.479 360.851 710.138 360.851 707.372C360.851 704.606 362.979 702.479 365.532 702.053C362.979 701.84 360.851 699.5 360.851 696.734C360.851 693.968 362.979 691.84 365.532 691.415C362.979 691.202 360.851 688.861 360.851 686.096C360.851 683.33 362.979 681.202 365.532 680.776C362.979 680.564 360.851 678.223 360.851 675.457C360.851 672.691 362.979 670.564 365.532 670.138C362.979 669.713 360.851 667.585 360.851 664.819C360.851 662.053 362.979 659.925 365.532 659.5C362.979 659.287 360.851 656.947 360.851 654.181C360.851 651.415 362.979 649.287 365.532 648.861C362.979 648.649 360.851 646.308 360.851 643.542C360.851 640.776 362.979 638.649 365.532 638.223C362.979 638.01 360.851 635.67 360.851 632.904C360.851 630.138 362.979 628.01 365.532 627.585C362.979 627.372 360.851 625.032 360.851 622.266C360.851 619.5 362.979 617.372 365.532 616.947C362.979 616.734 360.851 614.393 360.851 611.627C360.851 608.861 362.979 606.734 365.532 606.308C362.979 606.096 360.851 603.755 360.851 600.989C360.851 598.223 362.979 596.096 365.532 595.67C362.979 595.244 360.851 593.117 360.851 590.351C360.851 587.585 362.979 585.457 365.532 585.032C362.979 584.606 360.851 582.478 360.851 579.713C360.851 576.947 362.979 574.819 365.532 574.393C362.979 574.181 360.851 571.84 360.851 569.074C360.851 566.308 362.979 564.181 365.532 563.755C362.979 563.542 360.851 561.202 360.851 558.436C360.851 555.67 362.979 553.542 365.532 553.117C362.979 552.904 360.851 550.564 360.851 547.798C360.851 545.032 362.979 542.904 365.532 542.478C362.979 542.266 360.851 539.925 360.851 537.159C360.851 534.393 362.979 532.266 365.532 531.84C362.979 531.627 360.851 529.287 360.851 526.521C360.851 523.755 362.979 521.627 365.532 521.202C362.979 520.989 360.851 518.649 360.851 515.883C360.851 513.117 362.979 510.989 365.532 510.564C362.979 510.138 360.851 508.01 360.851 505.244C360.851 502.478 362.979 500.351 365.532 499.925C362.979 499.712 360.851 497.372 360.851 494.606C360.851 491.84 362.979 489.712 365.532 489.287C362.979 489.074 360.851 486.734 360.851 483.968C360.851 481.202 362.979 479.074 365.532 478.649C362.979 478.436 360.851 476.095 360.851 473.33C360.851 470.564 362.979 468.436 365.532 468.01C362.979 467.585 360.851 465.457 360.851 462.691C360.851 459.925 362.979 457.798 365.532 457.372C362.979 457.159 360.851 454.819 360.851 452.053C360.851 449.287 362.979 447.159 365.532 446.734C362.979 446.308 360.851 444.181 360.851 441.415C360.851 438.649 362.979 436.521 365.532 436.095C362.979 435.883 360.851 433.542 360.851 430.776C360.851 428.01 362.979 425.883 365.532 425.457C362.979 425.244 360.851 422.904 360.851 420.138C360.851 417.372 362.979 415.244 365.532 414.819C362.979 414.606 360.851 412.266 360.851 409.5C360.851 406.734 362.979 404.606 365.532 404.181C362.979 403.968 360.851 401.627 360.851 398.861C360.851 396.095 362.979 393.968 365.532 393.542C362.979 393.329 360.851 390.989 360.851 388.223C360.851 385.457 362.979 383.329 365.532 382.904C362.979 382.478 360.851 380.351 360.851 377.585C360.851 374.819 362.979 372.691 365.532 372.266C362.979 372.053 360.851 369.712 360.851 366.947C360.851 364.181 362.979 362.053 365.532 361.627C362.979 361.415 360.851 359.074 360.851 356.308C360.851 353.542 362.979 351.415 365.532 350.989C362.979 350.776 360.851 348.436 360.851 345.67C360.851 342.904 362.979 340.776 365.532 340.351C362.979 340.138 360.851 337.798 360.851 335.032C360.851 332.266 362.979 330.138 365.532 329.712C362.979 329.5 360.851 327.159 360.851 324.393C360.851 321.627 362.979 319.5 365.532 319.074C362.979 318.861 360.851 316.521 360.851 313.755C360.851 310.989 362.979 308.861 365.532 308.436C362.979 308.01 360.851 305.883 360.851 303.117C360.851 300.351 362.979 298.223 365.532 297.798C362.979 297.372 360.851 295.244 360.851 292.478C360.851 289.712 362.979 287.585 365.532 287.159C362.979 286.946 360.851 284.606 360.851 281.84C360.851 279.074 362.979 276.946 365.532 276.521C362.979 276.308 360.851 273.968 360.851 271.202C360.851 268.436 362.979 266.308 365.532 265.883C362.979 265.67 360.851 263.329 360.851 260.564C360.851 257.798 362.979 255.67 365.532 255.244C362.979 255.032 360.851 252.691 360.851 249.925C360.851 247.159 362.979 245.032 365.532 244.606C362.979 244.181 360.851 242.053 360.851 239.287C360.851 236.308 363.191 233.968 366.17 233.968C369.149 233.968 371.489 236.308 371.489 239.287C371.489 242.053 369.362 244.181 366.809 244.606C369.362 244.819 371.489 247.159 371.489 249.925C371.489 252.691 369.362 254.819 366.809 255.244C369.362 255.67 371.489 257.798 371.489 260.564C371.489 263.329 369.362 265.457 366.809 265.883C369.362 266.308 371.489 268.436 371.489 271.202C371.489 273.968 369.362 276.095 366.809 276.521C369.362 276.734 371.489 279.074 371.489 281.84C371.489 284.606 369.362 286.734 366.809 287.159C369.362 287.372 371.489 289.712 371.489 292.478C371.489 295.244 369.362 297.372 366.809 297.798C369.362 298.01 371.489 300.351 371.489 303.117C371.489 305.883 369.362 308.01 366.809 308.436C369.362 308.649 371.489 310.989 371.489 313.755C371.489 316.521 369.362 318.649 366.809 319.074C369.362 319.5 371.489 321.627 371.489 324.393C371.489 327.159 369.362 329.287 366.809 329.712C369.362 329.925 371.489 332.266 371.489 335.032C371.489 337.798 369.362 339.925 366.809 340.351C369.362 340.776 371.489 342.904 371.489 345.67C371.489 348.436 369.362 350.564 366.809 350.989C369.362 351.415 371.489 353.542 371.489 356.308C371.489 359.074 369.362 361.202 366.809 361.627C369.362 361.84 371.489 364.181 371.489 366.947C371.489 369.712 369.362 371.84 366.809 372.266C369.362 372.478 371.489 374.819 371.489 377.585C371.489 380.351 369.362 382.478 366.809 382.904C369.362 383.117 371.489 385.457 371.489 388.223C371.489 390.989 369.362 393.117 366.809 393.542C369.362 393.755 371.489 396.095 371.489 398.861C371.489 401.627 369.362 403.755 366.809 404.181C369.362 404.393 371.489 406.734 371.489 409.5C371.489 412.266 369.362 414.393 366.809 414.819C369.362 415.032 371.489 417.372 371.489 420.138C371.489 422.904 369.362 425.032 366.809 425.457C369.362 425.883 371.489 428.01 371.489 430.776C371.489 433.542 369.362 435.67 366.809 436.095C369.362 436.308 371.489 438.649 371.489 441.415C371.489 444.181 369.362 446.308 366.809 446.734C369.362 446.947 371.489 449.287 371.489 452.053C371.489 454.819 369.362 456.947 366.809 457.372C369.362 457.585 371.489 459.925 371.489 462.691C371.489 465.457 369.362 467.585 366.809 468.01C369.362 468.223 371.489 470.564 371.489 473.33C371.489 476.095 369.362 478.223 366.809 478.649C369.362 478.861 371.489 481.202 371.489 483.968C371.489 486.734 369.362 488.861 366.809 489.287C369.362 489.5 371.489 491.84 371.489 494.606C371.489 497.372 369.362 499.5 366.809 499.925C369.362 500.351 371.489 502.478 371.489 505.244C371.489 508.01 369.362 510.138 366.809 510.564C369.362 510.776 371.489 513.117 371.489 515.883C371.489 518.649 369.362 520.776 366.809 521.202C369.362 521.415 371.489 523.755 371.489 526.521C371.489 529.287 369.362 531.415 366.809 531.84C369.362 532.053 371.489 534.393 371.489 537.159C371.489 539.925 369.362 542.053 366.809 542.478C369.362 542.691 371.489 545.032 371.489 547.798C371.489 550.564 369.362 552.691 366.809 553.117C369.362 553.33 371.489 555.67 371.489 558.436C371.489 561.202 369.362 563.33 366.809 563.755C369.362 563.968 371.489 566.308 371.489 569.074C371.489 571.84 369.362 573.968 366.809 574.393C369.362 574.606 371.489 576.947 371.489 579.713C371.489 582.478 369.362 584.606 366.809 585.032C369.362 585.244 371.489 587.585 371.489 590.351C371.489 593.117 369.362 595.244 366.809 595.67C369.362 595.883 371.489 598.223 371.489 600.989C371.489 603.755 369.362 605.883 366.809 606.308C369.362 606.521 371.489 608.861 371.489 611.627C371.489 614.393 369.362 616.521 366.809 616.947C369.362 617.159 371.489 619.5 371.489 622.266C371.489 625.032 369.362 627.159 366.809 627.585C369.362 628.01 371.489 630.138 371.489 632.904C371.489 635.67 369.362 637.798 366.809 638.223C369.362 638.649 371.489 640.776 371.489 643.542C371.489 646.308 369.362 648.436 366.809 648.861C369.362 649.074 371.489 651.415 371.489 654.181C371.489 656.947 369.362 659.074 366.809 659.5C369.362 659.713 371.489 662.053 371.489 664.819C371.489 667.585 369.362 669.713 366.809 670.138C369.362 670.351 371.489 672.691 371.489 675.457C371.489 678.223 369.362 680.351 366.809 680.776C369.362 680.989 371.489 683.33 371.489 686.096C371.489 688.861 369.362 690.989 366.809 691.415C369.362 691.627 371.489 693.968 371.489 696.734C371.489 699.5 369.362 701.627 366.809 702.053C369.362 702.479 371.489 704.606 371.489 707.372C371.489 710.138 369.362 712.266 366.809 712.691C369.362 713.117 371.489 715.244 371.489 718.01C371.489 720.776 369.362 722.904 366.809 723.33C369.362 723.755 371.489 725.883 371.489 728.649C371.489 731.627 369.149 733.968 366.17 733.968C363.191 733.968 360.851 731.627 360.851 728.649Z" fill="#191743"/>
<path d="M366.17 744.607C365.745 744.607 365.532 744.607 365.106 744.607C364.681 744.607 364.468 744.394 364.043 744.394C363.83 744.181 363.404 744.181 363.192 743.968C362.979 743.756 362.553 743.543 362.34 743.33C361.277 742.266 360.851 740.99 360.851 739.5C360.851 738.011 361.489 736.734 362.34 735.671C362.553 735.458 362.766 735.245 363.192 735.032C363.404 734.819 363.83 734.607 364.043 734.607C364.468 734.394 364.681 734.394 365.106 734.394C365.745 734.181 366.596 734.181 367.234 734.394C367.66 734.394 367.872 734.607 368.298 734.607C368.723 734.819 368.936 734.819 369.149 735.032C369.362 735.245 369.787 735.458 370 735.671C371.064 736.734 371.489 738.011 371.489 739.5C371.489 740.99 370.851 742.266 370 743.33C369.787 743.543 369.574 743.756 369.149 743.968C368.936 744.181 368.511 744.394 368.298 744.394C367.872 744.607 367.66 744.607 367.234 744.607C366.809 744.607 366.596 744.607 366.17 744.607Z" fill="#191743"/>
<path d="M366.17 755.458C375.101 755.458 382.34 748.218 382.34 739.287C382.34 730.357 375.101 723.117 366.17 723.117C357.24 723.117 350 730.357 350 739.287C350 748.218 357.24 755.458 366.17 755.458Z" fill="#191743"/>
<defs>
<radialGradient id="paint0_radial" cx="0" cy="0" r="1" gradientUnits="userSpaceOnUse" gradientTransform="translate(184.815 168.936) scale(93.9302)">
<stop stop-color="#282828" stop-opacity="0"/>
<stop offset="0.9722" stop-color="#282828" stop-opacity="0.9728"/>
<stop offset="0.9994" stop-color="#282828"/>
</radialGradient>
</defs>
</svg>
